<?xml version="1.0" standalone="no"?>
<!DOCTYPE svg PUBLIC "-//W3C//DTD SVG 20010904//EN"
 "http://www.w3.org/TR/2001/REC-SVG-20010904/DTD/svg10.dtd">
<svg version="1.0" xmlns="http://www.w3.org/2000/svg"
 width="101.000000pt" height="101.000000pt" viewBox="0 0 101.000000 101.000000"
 preserveAspectRatio="xMidYMid meet">
<metadata>
Created by potrace 1.11, written by Peter Selinger 2001-2013
</metadata>
<g transform="translate(0.000000,101.000000) scale(0.100000,-0.100000)"
fill="#000000" stroke="none">
<path d="M435 945 c-27 -19 -53 -36 -59 -38 -9 -3 -17 -290 -8 -314 2 -8 22
-13 48 -13 l44 0 0 -38 c0 -41 9 -46 58 -36 18 3 22 11 22 39 0 33 1 34 47 37
l48 3 0 157 1 157 -64 41 c-35 22 -69 40 -75 39 -7 0 -34 -16 -62 -34z"/>
<path d="M238 822 l-67 -47 -1 -77 0 -77 28 9 c15 5 47 15 72 23 l45 14 1 102
c0 55 -2 101 -5 100 -3 0 -36 -21 -73 -47z"/>
<path d="M682 769 l3 -103 73 -22 72 -22 0 76 0 77 -48 31 c-26 17 -60 39 -75
49 l-28 18 3 -104z"/>
<path d="M238 598 l-68 -21 0 -99 c0 -92 2 -102 32 -158 18 -33 35 -60 38 -60
3 0 5 40 4 89 l0 88 48 19 c26 10 48 19 48 20 0 1 -6 13 -13 27 -7 14 -12 46
-11 71 1 25 -1 46 -4 45 -4 0 -37 -10 -74 -21z"/>
<path d="M680 556 c0 -53 -3 -65 -17 -68 -12 -3 -2 -12 32 -29 28 -13 52 -27
56 -31 3 -4 5 -46 4 -93 0 -47 0 -85 2 -85 1 0 18 29 38 63 34 61 35 68 35
164 l0 99 -57 18 c-32 10 -66 20 -75 22 -16 5 -18 -3 -18 -60z"/>
<path d="M369 558 c-7 -22 -3 -68 6 -68 37 0 81 40 58 53 -11 6 -63 18 -64 15z"/>
<path d="M589 551 c-18 -4 -25 -12 -23 -24 3 -22 0 -19 39 -33 l31 -11 0 39
c0 39 -2 40 -47 29z"/>
<path d="M422 472 c-15 -10 -25 -52 -12 -52 5 0 12 5 15 10 3 6 17 10 31 10
27 0 33 24 8 34 -20 8 -26 7 -42 -2z"/>
<path d="M528 469 c-24 -14 -23 -29 3 -29 11 0 29 -5 40 -10 16 -9 19 -7 19
15 0 14 -4 25 -9 25 -5 0 -15 2 -23 5 -7 2 -21 0 -30 -6z"/>
<path d="M323 427 l-33 -10 0 -117 0 -116 38 -34 37 -33 3 79 c3 68 6 82 28
105 l24 26 -25 11 c-14 6 -25 15 -26 19 0 5 -2 22 -2 40 -2 40 -5 42 -44 30z"/>
<path d="M635 399 c2 -35 -2 -43 -26 -58 l-29 -18 25 -23 c21 -20 25 -33 27
-102 l3 -80 38 32 37 33 0 114 0 114 -35 15 c-19 7 -36 14 -38 14 -2 0 -3 -18
-2 -41z"/>
<path d="M438 406 c-49 -37 33 -88 103 -64 33 11 43 42 20 62 -21 19 -99 21
-123 2z"/>
<path d="M441 286 c-18 -19 -21 -35 -21 -113 l0 -90 38 -27 c21 -14 42 -26 48
-26 5 0 24 14 42 31 31 29 32 32 32 119 0 83 -2 90 -25 108 -34 27 -88 26
-114 -2z"/>
</g>
</svg>
